# xmcd
#
# Track frame offsets: 
#        150
#        14615
#        31143
#        47313
#        64920
#        84448
#        98610
#        115769
#        135303
#        150474
#        169045
#        191115
#
# Disc length: 2563 seconds
#
# Revision: 0
# Processed by: cddbd v1.5.2PL0 Copyright (c) Steve Scherf et al.
# Submitted via: ExactAudioCopy v1.0b3
#
DISCID=890a010c
DTITLE=Jimmy Lehoux Band - Northern Mind Southern Soul
DYEAR=2014
DGENRE=Country
TTITLE0=Behind Every Good Man
TTITLE1=Jack and Charlie
TTITLE2=Chevy Van
TTITLE3=C'est Son Amour (It's Her Love)
TTITLE4=Northern Mind Southern Soul
TTITLE5=Honky Tonk All Night
TTITLE6=Me 'N' Opie (Down By the Duck Pond)
TTITLE7=Life is Fragile (Handle with Prayer)
TTITLE8=Fais Do Do
TTITLE9=You The Fans
TTITLE10=Please Come To Boston (Live)
TTITLE11=Thank You
EXTD=
EXTT0=
EXTT1=
EXTT2=
EXTT3=
EXTT4=
EXTT5=
EXTT6=
EXTT7=
EXTT8=
EXTT9=
EXTT10=
EXTT11=
PLAYORDER=
